<svg enable-background=" 0 0 3000 3000" viewBox="0 0 3000 3000" xmlns="http://www.w3.org/2000/svg"><g fill="#f43f5e"><path d="m1522.82 1496.19c0 207.34 4.12 414.78-1.28 621.98-4.53 173.84 125.6 305.43 299.45 301.59 340.21-7.52 680.71-2.27 1021.09-2.23 66.68.01 66.64.15 66.49 65.54-.08 34.56-2.83 69.41.72 103.6 4.77 46.08-13.01 59.71-58.21 59.37-241.88-1.79-483.78-.94-725.68-.99-105.4-.02-210.94-3.6-316.16.67-285.36 11.58-527.71-236.11-514.26-511.6 7.07-144.8-.64-290.26 2.58-435.32 1.15-51.94-17.72-66.53-66.32-63.35-53.33 3.49-107.21 3.15-160.59.08-41.74-2.4-64.83 8.7-79.72 52-52.56 152.88-158.88 253-315.88 292.96-288.37 73.39-541.34-152.82-551.04-392.36-8.54-210.86 75.46-357.92 264.12-449.95 170.41-83.13 420.6-21.37 530.27 136.65 27.18 39.17 48.66 82.94 68 126.71 16.56 37.47 36.91 57.22 81.49 53.52 53.2-4.41 107.04-1.02 160.6-1.02 64.57.01 67.94-3.13 67.97-66.35.08-177.97 4.79-356.09-1.19-533.85-7.75-230.35 139.74-434.59 382.31-503.06 14.72-4.16 30.71-5.34 46.11-5.33 373.2.23 746.4 1.77 1119.59.2 51.96-.22 68.08 13.03 66.63 66.56-4.21 154.76-1.78 154.85-155.11 154.83-311.01-.05-622.01-.03-933.02-.22-184.1-.11-298.58 113.18-298.87 297-.34 210.78-.08 421.58-.09 632.37zm-1270.4 45.69c-.47 186.74 128.7 317.9 313.7 318.52 175.46.59 319.96-141.26 318.94-313.09-1.01-169.15-148.22-320.7-318.67-317.68-180.29 3.2-316.86 144.56-313.97 312.25z"/><path d="m1645.32 1472.71c0-139.96-.02-279.91 0-419.87.02-160.54 93.01-286.78 245.38-332.17 12.94-3.85 27.16-4.76 40.79-4.77 240.17-.08 480.34 1.02 720.5-.35 45.55-.26 64.41 15.91 59.06 60.78-1.02 8.52-1.31 17.44 0 25.87 7.41 47.85-12.66 63.37-60.48 62.92-212.51-2.02-425.04-.8-637.57-1.09-148.35-.2-211.35 62.26-211.61 210.96-.2 110.58 1.08 221.19-.85 331.74-.7 40.21 12.82 56.32 53.89 54.57 56.91-2.42 114.04-1.58 171.02-.14 33.07.83 47.18-12.04 46.56-45.53-1.19-63.91 1.96-127.97-1.13-191.75-2.04-42.11 14.64-53.34 54.11-53.65 142.98-1.13 142.98-2.2 142.97 140.82 0 29.37 1.49 58.85-.45 88.1-2.74 41.3 6.69 63.51 56.2 63.21 48.62-.3 63.22-16.78 61.33-63.89-3.32-82.81-.4-165.85-1.69-248.77-.54-34.71 12.29-50.97 48.36-50.19 176.54 3.83 145.84-25.14 148.29 141.1.84 57 .9 114.06-.59 171.04-.91 34.79 12.33 49.11 48.23 50.45 104.71 3.92 104.66 5.09 120.99 107.5 12.7 79.67 11.57 80.83-69.55 80.79-273-.13-546.01.73-819-1.05-46.32-.3-61.34 16.45-59.47 60.67 2.49 58.64.33 117.47.82 176.21 1.05 126.48 69.89 195.75 195.32 195.89 215.98.25 431.97-.62 647.94.76 21.33.14 59.42 10.09 60.88 19.83 5.71 38.01 1.57 78-3.65 116.62-.78 5.77-26.85 11.52-41.23 11.55-231.53.57-463.19-4.52-694.54 1.75-150.9 4.09-324.96-135.25-321.57-329.69 2.5-143.37.49-286.81.49-430.22z"/></g></svg>